/* XPM */
static char * PESPCOIN64_xpm[] = {
"64 64 13 1",
" 	c None",
".	c #E381AB",
"+	c #AF0077",
"@	c #FF7901",
"#	c #FF7200",
"$	c #EA7D96",
"%	c #C31A5E",
"&	c #D45F8B",
"*	c #DB6282",
"=	c #C52F64",
"-	c #B9106B",
";	c #C73A68",
">	c #E0431F",
"                                                                ",
"                                                                ",
"                                                                ",
"                                                                ",
"                                                                ",
"                                                                ",
"           .....                                                ",
"           .....                                                ",
"           .....                                                ",
"           ...    +++++                                         ",
"           ... @@ +++++    ###########$..........               ",
"           ..  @@ +++++    ###########$...........              ",
"                  +++++    ###########$...........              ",
"              +++++++++    ###########$...........              ",
"             ++++++++++    ###########$...........              ",
"             ++++++++++    ###########$...........              ",
"             ++++++++++    ###########$...........              ",
"              +++++++++    ###########$...........              ",
"                           ###########$...........              ",
"                           ###########$...........              ",
"                           ###########$...........              ",
"                           ###########$...........              ",
"               %%%%%%%%%%%%           %%%%%%%%%%%%              ",
"               %%%%%%%%%%%%           %%%%%%%%%%%%              ",
"               %%%%%%%%%%%%           %%%%%%%%%%%%              ",
"               %%%%%%%%%%%%           %%%%%%%%%%%%              ",
"               %%%%%%%%%%%%           %%%%%%%%%%%%              ",
"               %%%%%%%%%%%%           %%%%%%%%%%%%              ",
"               %%%%%%%%%%%%           %%%%%%%%%%%%              ",
"               %%%%%%%%%%%%           %%%%%%%%%%%%              ",
"               %%%%%%%%%%%%           %%%%%%%%%%%%              ",
"               %%%%%%%%%%%%           %%%%%%%%%%%%              ",
"               %%%%%%%%%%%%           %%%%%%%%%%%%              ",
"               &&&&&&&&&&&*###########=-----------              ",
"               ...........$###########;+++++++++++              ",
"               ...........$###########;+++++++++++              ",
"               ...........$###########;+++++++++++              ",
"               ...........$###########;+++++++++++              ",
"               ...........$###########;+++++++++++              ",
"               ...........$###########;+++++++++++              ",
"               ...........$###########;+++++++++++              ",
"               ...........$###########;+++++++++++              ",
"               ...........$###########;+++++++++++              ",
"               ...........$###########;+++++++++++              ",
"               ...........$###########;+++++++++++              ",
"               >>>>>>>>>>>>                                     ",
"               >>>>>>>>>>>>                                     ",
"               >>>>>>>>>>>>                                     ",
"               >>>>>>>>>>>>                                     ",
"               >>>>>>>>>>>>                                     ",
"               >>>>>>>>>>>>                                     ",
"               >>>>>>>>>>>>                                     ",
"               >>>>>>>>>>>>                                     ",
"               >>>>>>>>>>>>                                     ",
"               >>>>>>>>>>>>                                     ",
"               >>>>>>>>>>>>                                     ",
"                >>>>>>>>>>                                      ",
"                                                                ",
"                                                                ",
"                                                                ",
"                                                                ",
"                                                                ",
"                                                                ",
"                                                                "};
