/* XPM */
static char * PESPCOIN32_xpm[] = {
"32 32 21 1",
" 	c None",
".	c #E381AB",
"+	c #AF0077",
"@	c #FF7901",
"#	c #FF7A00",
"$	c #FF7200",
"%	c #E77F9F",
"&	c #E880A0",
"*	c #E382AC",
"=	c #C31A5E",
"-	c #C2145C",
";	c #C2155C",
">	c #CB4375",
",	c #D95266",
"'	c #C21F62",
")	c #BF1664",
"!	c #F47870",
"~	c #BE2C6E",
"{	c #E2687F",
"]	c #EF6C61",
"^	c #E0431F",
"                                ",
"                                ",
"                                ",
"     ...                        ",
"     ..  ++                     ",
"      .@#++   $$$$$%.....       ",
"         ++  $$$$$$%.....       ",
"       ++++  $$$$$$%.....       ",
"       ++++  $$$$$$%.....       ",
"             $$$$$$%.....       ",
"             $$$$$$&*****       ",
"        =====      -;;;;;       ",
"        =====      ======       ",
"        =====      ======       ",
"        =====      ======       ",
"        =====      ======       ",
"        >>>>>,     ')))))       ",
"        .....!$$$$$~+++++       ",
"        .....!$$$$$~+++++       ",
"        .....!$$$$$~+++++       ",
"        .....!$$$$$~+++++       ",
"        .....!$$$$$~+++++       ",
"        {{{{{]$$$$$~++++        ",
"        ^^^^^                   ",
"        ^^^^^                   ",
"        ^^^^^                   ",
"        ^^^^^                   ",
"        ^^^^^                   ",
"                                ",
"                                ",
"                                ",
"                                "};
