/* XPM */
static char * PESPCOIN16_xpm[] = {
"16 16 19 1",
" 	c None",
".	c #E381AB",
"+	c #E8809D",
"@	c #AF0077",
"#	c #FF7200",
"$	c #F5786F",
"%	c #C31A5E",
"&	c #DA484C",
"*	c #E8686A",
"=	c #D45F8B",
"-	c #D76792",
";	c #E16981",
">	c #DE5250",
",	c #B70D6E",
"'	c #ED7C8D",
")	c #E45A4C",
"!	c #E15353",
"~	c #E4564F",
"{	c #E0431F",
"                ",
"   .            ",
"   + @          ",
"    @@ ##$..    ",
"       ##$..    ",
"    %%&##*==    ",
"    %%%   %%    ",
"    %%%   %%    ",
"    --;##>,,    ",
"    ..'##)@@    ",
"    ..'##)@@    ",
"    !!~         ",
"    {{{         ",
"    {{{         ",
"                ",
"                "};
