/* XPM */
static char * PESPCOIN128_xpm[] = {
"128 128 9 1",
" 	c None",
".	c #E381AB",
"+	c #AF0077",
"@	c #FF7901",
"#	c #FF7200",
"$	c #F27A7D",
"%	c #C31A5E",
"&	c #DC5256",
"*	c #E0431F",
"                                                                                                                                ",
"                                                                                                                                ",
"                                                                                                                                ",
"                                                                                                                                ",
"                                                                                                                                ",
"                                                                                                                                ",
"                                                                                                                                ",
"                                                                                                                                ",
"                                                                                                                                ",
"                                                                                                                                ",
"                                                                                                                                ",
"                      ..........                                                                                                ",
"                     ............                                                                                               ",
"                     ............                                                                                               ",
"                     ............                                                                                               ",
"                     ............                                                                                               ",
"                     ............                                                                                               ",
"                     ...........    +++++++++                                                                                   ",
"                     .......        +++++++++                                                                                   ",
"                     .......        +++++++++                                                                                   ",
"                     .......  @@@@  +++++++++                                                                                   ",
"                     .......  @@@@  +++++++++        #######################$.......................                            ",
"                     .......  @@@@  +++++++++        #######################$.......................                            ",
"                              @@@@  +++++++++        #######################$.......................                            ",
"                                    +++++++++        #######################$.......................                            ",
"                                    +++++++++        #######################$.......................                            ",
"                           ++++++++++++++++++        #######################$.......................                            ",
"                           ++++++++++++++++++        #######################$.......................                            ",
"                           ++++++++++++++++++        #######################$.......................                            ",
"                           ++++++++++++++++++        #######################$.......................                            ",
"                           ++++++++++++++++++        #######################$.......................                            ",
"                           ++++++++++++++++++        #######################$.......................                            ",
"                           ++++++++++++++++++        #######################$.......................                            ",
"                           ++++++++++++++++++        #######################$.......................                            ",
"                           ++++++++++++++++++        #######################$.......................                            ",
"                           ++++++++++++++++++        #######################$.......................                            ",
"                                                     #######################$.......................                            ",
"                                                     #######################$.......................                            ",
"                                                     #######################$.......................                            ",
"                                                     #######################$.......................                            ",
"                                                     #######################$.......................                            ",
"                                                     #######################$.......................                            ",
"                                                     #######################$.......................                            ",
"                                                     #######################$.......................                            ",
"                              %%%%%%%%%%%%%%%%%%%%%%%%                      %%%%%%%%%%%%%%%%%%%%%%%%                            ",
"                              %%%%%%%%%%%%%%%%%%%%%%%%                      %%%%%%%%%%%%%%%%%%%%%%%%                            ",
"                              %%%%%%%%%%%%%%%%%%%%%%%%                      %%%%%%%%%%%%%%%%%%%%%%%%                            ",
"                              %%%%%%%%%%%%%%%%%%%%%%%%                      %%%%%%%%%%%%%%%%%%%%%%%%                            ",
"                              %%%%%%%%%%%%%%%%%%%%%%%%                      %%%%%%%%%%%%%%%%%%%%%%%%                            ",
"                              %%%%%%%%%%%%%%%%%%%%%%%%                      %%%%%%%%%%%%%%%%%%%%%%%%                            ",
"                              %%%%%%%%%%%%%%%%%%%%%%%%                      %%%%%%%%%%%%%%%%%%%%%%%%                            ",
"                              %%%%%%%%%%%%%%%%%%%%%%%%                      %%%%%%%%%%%%%%%%%%%%%%%%                            ",
"                              %%%%%%%%%%%%%%%%%%%%%%%%                      %%%%%%%%%%%%%%%%%%%%%%%%                            ",
"                              %%%%%%%%%%%%%%%%%%%%%%%%                      %%%%%%%%%%%%%%%%%%%%%%%%                            ",
"                              %%%%%%%%%%%%%%%%%%%%%%%%                      %%%%%%%%%%%%%%%%%%%%%%%%                            ",
"                              %%%%%%%%%%%%%%%%%%%%%%%%                      %%%%%%%%%%%%%%%%%%%%%%%%                            ",
"                              %%%%%%%%%%%%%%%%%%%%%%%%                      %%%%%%%%%%%%%%%%%%%%%%%%                            ",
"                              %%%%%%%%%%%%%%%%%%%%%%%%                      %%%%%%%%%%%%%%%%%%%%%%%%                            ",
"                              %%%%%%%%%%%%%%%%%%%%%%%%                      %%%%%%%%%%%%%%%%%%%%%%%%                            ",
"                              %%%%%%%%%%%%%%%%%%%%%%%%                      %%%%%%%%%%%%%%%%%%%%%%%%                            ",
"                              %%%%%%%%%%%%%%%%%%%%%%%%                      %%%%%%%%%%%%%%%%%%%%%%%%                            ",
"                              %%%%%%%%%%%%%%%%%%%%%%%%                      %%%%%%%%%%%%%%%%%%%%%%%%                            ",
"                              %%%%%%%%%%%%%%%%%%%%%%%%                      %%%%%%%%%%%%%%%%%%%%%%%%                            ",
"                              %%%%%%%%%%%%%%%%%%%%%%%%                      %%%%%%%%%%%%%%%%%%%%%%%%                            ",
"                              %%%%%%%%%%%%%%%%%%%%%%%%                      %%%%%%%%%%%%%%%%%%%%%%%%                            ",
"                              %%%%%%%%%%%%%%%%%%%%%%%%                      %%%%%%%%%%%%%%%%%%%%%%%%                            ",
"                              %%%%%%%%%%%%%%%%%%%%%%%%                      %%%%%%%%%%%%%%%%%%%%%%%%                            ",
"                              .......................$######################&+++++++++++++++++++++++                            ",
"                              .......................$######################&+++++++++++++++++++++++                            ",
"                              .......................$######################&+++++++++++++++++++++++                            ",
"                              .......................$######################&+++++++++++++++++++++++                            ",
"                              .......................$######################&+++++++++++++++++++++++                            ",
"                              .......................$######################&+++++++++++++++++++++++                            ",
"                              .......................$######################&+++++++++++++++++++++++                            ",
"                              .......................$######################&+++++++++++++++++++++++                            ",
"                              .......................$######################&+++++++++++++++++++++++                            ",
"                              .......................$######################&+++++++++++++++++++++++                            ",
"                              .......................$######################&+++++++++++++++++++++++                            ",
"                              .......................$######################&+++++++++++++++++++++++                            ",
"                              .......................$######################&+++++++++++++++++++++++                            ",
"                              .......................$######################&+++++++++++++++++++++++                            ",
"                              .......................$######################&+++++++++++++++++++++++                            ",
"                              .......................$######################&+++++++++++++++++++++++                            ",
"                              .......................$######################&+++++++++++++++++++++++                            ",
"                              .......................$######################&+++++++++++++++++++++++                            ",
"                              .......................$######################&+++++++++++++++++++++++                            ",
"                              .......................$######################&+++++++++++++++++++++++                            ",
"                              .......................$######################&+++++++++++++++++++++++                            ",
"                              .......................$######################&+++++++++++++++++++++++                            ",
"                              .......................$######################&+++++++++++++++++++++++                            ",
"                              ************************                                                                          ",
"                              ************************                                                                          ",
"                              ************************                                                                          ",
"                              ************************                                                                          ",
"                              ************************                                                                          ",
"                              ************************                                                                          ",
"                              ************************                                                                          ",
"                              ************************                                                                          ",
"                              ************************                                                                          ",
"                              ************************                                                                          ",
"                              ************************                                                                          ",
"                              ************************                                                                          ",
"                              ************************                                                                          ",
"                              ************************                                                                          ",
"                              ************************                                                                          ",
"                              ************************                                                                          ",
"                              ************************                                                                          ",
"                              ************************                                                                          ",
"                              ************************                                                                          ",
"                              ************************                                                                          ",
"                              ************************                                                                          ",
"                              ************************                                                                          ",
"                              ************************                                                                          ",
"                                                                                                                                ",
"                                                                                                                                ",
"                                                                                                                                ",
"                                                                                                                                ",
"                                                                                                                                ",
"                                                                                                                                ",
"                                                                                                                                ",
"                                                                                                                                ",
"                                                                                                                                ",
"                                                                                                                                ",
"                                                                                                                                ",
"                                                                                                                                ",
"                                                                                                                                ",
"                                                                                                                                ",
"                                                                                                                                "};
